# Blender v2.92.0 OBJ File: 'minecraft_cube.blend'
# www.blender.org
mtllib cube_example_triangle.mtl
o Cube
v -1.000000 1.000000 -1.000000
v 1.000000 1.000000 -1.000000
v -1.000000 1.000000 1.000000
v 1.000000 1.000000 1.000000
v -1.000000 -1.000000 -1.000000
v 1.000000 -1.000000 -1.000000
v -1.000000 -1.000000 1.000000
v 1.000000 -1.000000 1.000000
vt 0.496476 1.000233
vt 0.251465 0.663013
vt 0.496476 0.663013
vt 0.001894 0.335312
vt 0.251465 0.335312
vt 0.997379 0.663013
vt 0.750606 0.335312
vt 0.997379 0.335312
vt 0.496476 0.335312
vt 0.251465 -0.000233
vt 0.496476 -0.000233
vt 0.750606 0.663013
vt 0.251465 1.000233
vt 0.001894 0.663013
vn -1.0000 0.0000 0.0000
vn 0.0000 0.0000 1.0000
vn -0.0000 -1.0000 0.0000
vn 1.0000 -0.0000 0.0000
vn 0.0000 1.0000 0.0000
vn 0.0000 0.0000 -1.0000
usemtl Grass
s off
f 5/1/1 3/2/1 1/3/1
f 3/2/2 8/4/2 4/5/2
f 7/6/3 6/7/3 8/8/3
f 2/9/4 8/10/4 6/11/4
f 1/3/5 4/5/5 2/9/5
f 5/12/6 2/9/6 6/7/6
f 5/1/1 7/13/1 3/2/1
f 3/2/2 7/14/2 8/4/2
f 7/6/3 5/12/3 6/7/3
f 2/9/4 4/5/4 8/10/4
f 1/3/5 3/2/5 4/5/5
f 5/12/6 1/3/6 2/9/6
