# Blender v2.92.0 OBJ File: 'minecraft_cube.blend'
# www.blender.org
mtllib cube_example_triangle.mtl
o Cube.001
v -1.000000 1.000000 -1.000000
v 1.000000 1.000000 -1.000000
v -1.000000 1.000000 1.000000
v 1.000000 1.000000 1.000000
v -1.000000 -1.000000 -1.000000
v 1.000000 -1.000000 -1.000000
v -1.000000 -1.000000 1.000000
v 1.000000 -1.000000 1.000000
vt 0.497210 0.999288
vt 0.250782 0.663464
vt 0.497847 0.663946
vt 0.250519 0.664199
vt 0.001633 0.333782
vt 0.251156 0.334264
vt 0.999391 0.664908
vt 0.749092 0.335967
vt 1.000028 0.336448
vt 0.497234 0.335485
vt 0.251792 -0.000713
vt 0.497871 -0.000232
vt 0.496598 0.663946
vt 0.251156 0.335004
vt 0.748456 0.664427
vt 0.250145 0.998807
vt 0.000996 0.663718
vt 0.250519 0.663464
vn -1.0000 0.0000 0.0000
vn 0.0000 0.0000 1.0000
vn 0.0000 -1.0000 0.0000
vn 1.0000 0.0000 0.0000
vn 0.0000 1.0000 0.0000
vn 0.0000 0.0000 -1.0000
usemtl Material.001
s off
f 5/1/1 3/2/1 1/3/1
f 3/4/2 8/5/2 4/6/2
f 7/7/3 6/8/3 8/9/3
f 2/10/4 8/11/4 6/12/4
f 1/13/5 4/14/5 2/10/5
f 5/15/6 2/10/6 6/8/6
f 5/1/1 7/16/1 3/2/1
f 3/4/2 7/17/2 8/5/2
f 7/7/3 5/15/3 6/8/3
f 2/10/4 4/14/4 8/11/4
f 1/13/5 3/18/5 4/14/5
f 5/15/6 1/13/6 2/10/6
