# Blender v2.92.0 OBJ File: 'minecraft_cube.blend'
# www.blender.org
mtllib minecraft_hill.mtl
o Cube
v -1.000000 1.000000 -1.000000
v 1.000000 1.000000 -1.000000
v -1.000000 1.000000 1.000000
v 1.000000 1.000000 1.000000
v -1.000000 -1.000000 -1.000000
v 1.000000 -1.000000 -1.000000
v -1.000000 -1.000000 1.000000
v 1.000000 -1.000000 1.000000
vt 0.497210 0.999288
vt 0.250539 0.664182
vt 0.497847 0.663946
vt 0.001633 0.334832
vt 0.251156 0.334264
vt 0.999391 0.664908
vt 0.748156 0.335967
vt 1.000028 0.336448
vt 0.497234 0.335485
vt 0.251792 0.000095
vt 0.497871 0.000231
vt 0.497865 0.663946
vt 0.748786 0.664427
vt 0.250145 0.998807
vt 0.000996 0.663718
vn -1.0000 0.0000 0.0000
vn 0.0000 0.0000 1.0000
vn 0.0000 -1.0000 0.0000
vn 1.0000 0.0000 0.0000
vn 0.0000 1.0000 0.0000
vn 0.0000 0.0000 -1.0000
usemtl Material.001
s off
f 5/1/1 3/2/1 1/3/1
f 3/2/2 8/4/2 4/5/2
f 7/6/3 6/7/3 8/8/3
f 2/9/4 8/10/4 6/11/4
f 1/12/5 4/5/5 2/9/5
f 5/13/6 2/9/6 6/7/6
f 5/1/1 7/14/1 3/2/1
f 3/2/2 7/15/2 8/4/2
f 7/6/3 5/13/3 6/7/3
f 2/9/4 4/5/4 8/10/4
f 1/12/5 3/2/5 4/5/5
f 5/13/6 1/12/6 2/9/6
o Cube.001
v -1.000000 1.000000 -3.000000
v 1.000000 1.000000 -3.000000
v -1.000000 1.000000 -1.000000
v 1.000000 1.000000 -1.000000
v -1.000000 -1.000000 -3.000000
v 1.000000 -1.000000 -3.000000
v -1.000000 -1.000000 -1.000000
v 1.000000 -1.000000 -1.000000
vt 0.497210 0.999288
vt 0.250539 0.664182
vt 0.497847 0.663946
vt 0.001633 0.334832
vt 0.251156 0.334264
vt 0.999391 0.664908
vt 0.748156 0.335967
vt 1.000028 0.336448
vt 0.497234 0.335485
vt 0.251792 0.000095
vt 0.497871 0.000231
vt 0.497865 0.663946
vt 0.748786 0.664427
vt 0.250145 0.998807
vt 0.000996 0.663718
vn -1.0000 0.0000 0.0000
vn 0.0000 0.0000 1.0000
vn 0.0000 -1.0000 0.0000
vn 1.0000 0.0000 0.0000
vn 0.0000 1.0000 0.0000
vn 0.0000 0.0000 -1.0000
usemtl Material.004
s off
f 13/16/7 11/17/7 9/18/7
f 11/17/8 16/19/8 12/20/8
f 15/21/9 14/22/9 16/23/9
f 10/24/10 16/25/10 14/26/10
f 9/27/11 12/20/11 10/24/11
f 13/28/12 10/24/12 14/22/12
f 13/16/7 15/29/7 11/17/7
f 11/17/8 15/30/8 16/19/8
f 15/21/9 13/28/9 14/22/9
f 10/24/10 12/20/10 16/25/10
f 9/27/11 11/17/11 12/20/11
f 13/28/12 9/27/12 10/24/12
o Cube.002
v -1.000000 1.000000 -5.000000
v 1.000000 1.000000 -5.000000
v -1.000000 1.000000 -3.000000
v 1.000000 1.000000 -3.000000
v -1.000000 -1.000000 -5.000000
v 1.000000 -1.000000 -5.000000
v -1.000000 -1.000000 -3.000000
v 1.000000 -1.000000 -3.000000
vt 0.497210 0.999288
vt 0.250539 0.664182
vt 0.497847 0.663946
vt 0.001633 0.334832
vt 0.251156 0.334264
vt 0.999391 0.664908
vt 0.748156 0.335967
vt 1.000028 0.336448
vt 0.497234 0.335485
vt 0.251792 0.000095
vt 0.497871 0.000231
vt 0.497865 0.663946
vt 0.748786 0.664427
vt 0.250145 0.998807
vt 0.000996 0.663718
vn -1.0000 0.0000 0.0000
vn 0.0000 0.0000 1.0000
vn 0.0000 -1.0000 0.0000
vn 1.0000 0.0000 0.0000
vn 0.0000 1.0000 0.0000
vn 0.0000 0.0000 -1.0000
usemtl Material.005
s off
f 21/31/13 19/32/13 17/33/13
f 19/32/14 24/34/14 20/35/14
f 23/36/15 22/37/15 24/38/15
f 18/39/16 24/40/16 22/41/16
f 17/42/17 20/35/17 18/39/17
f 21/43/18 18/39/18 22/37/18
f 21/31/13 23/44/13 19/32/13
f 19/32/14 23/45/14 24/34/14
f 23/36/15 21/43/15 22/37/15
f 18/39/16 20/35/16 24/40/16
f 17/42/17 19/32/17 20/35/17
f 21/43/18 17/42/18 18/39/18
o Cube.003
v -1.000000 1.000000 -7.000000
v 1.000000 1.000000 -7.000000
v -1.000000 1.000000 -5.000000
v 1.000000 1.000000 -5.000000
v -1.000000 -1.000000 -7.000000
v 1.000000 -1.000000 -7.000000
v -1.000000 -1.000000 -5.000000
v 1.000000 -1.000000 -5.000000
vt 0.497210 0.999288
vt 0.250539 0.664182
vt 0.497847 0.663946
vt 0.001633 0.334832
vt 0.251156 0.334264
vt 0.999391 0.664908
vt 0.748156 0.335967
vt 1.000028 0.336448
vt 0.497234 0.335485
vt 0.251792 0.000095
vt 0.497871 0.000231
vt 0.497865 0.663946
vt 0.748786 0.664427
vt 0.250145 0.998807
vt 0.000996 0.663718
vn -1.0000 0.0000 0.0000
vn 0.0000 0.0000 1.0000
vn 0.0000 -1.0000 0.0000
vn 1.0000 0.0000 0.0000
vn 0.0000 1.0000 0.0000
vn 0.0000 0.0000 -1.0000
usemtl Material.006
s off
f 29/46/19 27/47/19 25/48/19
f 27/47/20 32/49/20 28/50/20
f 31/51/21 30/52/21 32/53/21
f 26/54/22 32/55/22 30/56/22
f 25/57/23 28/50/23 26/54/23
f 29/58/24 26/54/24 30/52/24
f 29/46/19 31/59/19 27/47/19
f 27/47/20 31/60/20 32/49/20
f 31/51/21 29/58/21 30/52/21
f 26/54/22 28/50/22 32/55/22
f 25/57/23 27/47/23 28/50/23
f 29/58/24 25/57/24 26/54/24
o Cube.007
v -3.000000 1.000000 -1.000000
v -1.000000 1.000000 -1.000000
v -3.000000 1.000000 1.000000
v -1.000000 1.000000 1.000000
v -3.000000 -1.000000 -1.000000
v -1.000000 -1.000000 -1.000000
v -3.000000 -1.000000 1.000000
v -1.000000 -1.000000 1.000000
vt 0.497210 0.999288
vt 0.250539 0.664182
vt 0.497847 0.663946
vt 0.001633 0.334832
vt 0.251156 0.334264
vt 0.999391 0.664908
vt 0.748156 0.335967
vt 1.000028 0.336448
vt 0.497234 0.335485
vt 0.251792 0.000095
vt 0.497871 0.000231
vt 0.497865 0.663946
vt 0.748786 0.664427
vt 0.250145 0.998807
vt 0.000996 0.663718
vn -1.0000 0.0000 0.0000
vn 0.0000 0.0000 1.0000
vn 0.0000 -1.0000 0.0000
vn 1.0000 0.0000 0.0000
vn 0.0000 1.0000 0.0000
vn 0.0000 0.0000 -1.0000
usemtl Material.010
s off
f 37/61/25 35/62/25 33/63/25
f 35/62/26 40/64/26 36/65/26
f 39/66/27 38/67/27 40/68/27
f 34/69/28 40/70/28 38/71/28
f 33/72/29 36/65/29 34/69/29
f 37/73/30 34/69/30 38/67/30
f 37/61/25 39/74/25 35/62/25
f 35/62/26 39/75/26 40/64/26
f 39/66/27 37/73/27 38/67/27
f 34/69/28 36/65/28 40/70/28
f 33/72/29 35/62/29 36/65/29
f 37/73/30 33/72/30 34/69/30
o Cube.006
v -3.000000 3.000000 -3.000000
v -1.000000 3.000000 -3.000000
v -3.000000 3.000000 -1.000000
v -1.000000 3.000000 -1.000000
v -3.000000 1.000000 -3.000000
v -1.000000 1.000000 -3.000000
v -3.000000 1.000000 -1.000000
v -1.000000 1.000000 -1.000000
vt 0.497210 0.999288
vt 0.250539 0.664182
vt 0.497847 0.663946
vt 0.001633 0.334832
vt 0.251156 0.334264
vt 0.999391 0.664908
vt 0.748156 0.335967
vt 1.000028 0.336448
vt 0.497234 0.335485
vt 0.251792 0.000095
vt 0.497871 0.000231
vt 0.497865 0.663946
vt 0.748786 0.664427
vt 0.250145 0.998807
vt 0.000996 0.663718
vn -1.0000 0.0000 0.0000
vn 0.0000 0.0000 1.0000
vn 0.0000 -1.0000 0.0000
vn 1.0000 0.0000 0.0000
vn 0.0000 1.0000 0.0000
vn 0.0000 0.0000 -1.0000
usemtl Material.009
s off
f 45/76/31 43/77/31 41/78/31
f 43/77/32 48/79/32 44/80/32
f 47/81/33 46/82/33 48/83/33
f 42/84/34 48/85/34 46/86/34
f 41/87/35 44/80/35 42/84/35
f 45/88/36 42/84/36 46/82/36
f 45/76/31 47/89/31 43/77/31
f 43/77/32 47/90/32 48/79/32
f 47/81/33 45/88/33 46/82/33
f 42/84/34 44/80/34 48/85/34
f 41/87/35 43/77/35 44/80/35
f 45/88/36 41/87/36 42/84/36
o Cube.005
v -3.000000 3.000000 -5.000000
v -1.000000 3.000000 -5.000000
v -3.000000 3.000000 -3.000000
v -1.000000 3.000000 -3.000000
v -3.000000 1.000000 -5.000000
v -1.000000 1.000000 -5.000000
v -3.000000 1.000000 -3.000000
v -1.000000 1.000000 -3.000000
vt 0.497210 0.999288
vt 0.250539 0.664182
vt 0.497847 0.663946
vt 0.001633 0.334832
vt 0.251156 0.334264
vt 0.999391 0.664908
vt 0.748156 0.335967
vt 1.000028 0.336448
vt 0.497234 0.335485
vt 0.251792 0.000095
vt 0.497871 0.000231
vt 0.497865 0.663946
vt 0.748786 0.664427
vt 0.250145 0.998807
vt 0.000996 0.663718
vn -1.0000 0.0000 0.0000
vn 0.0000 0.0000 1.0000
vn 0.0000 -1.0000 0.0000
vn 1.0000 0.0000 0.0000
vn 0.0000 1.0000 0.0000
vn 0.0000 0.0000 -1.0000
usemtl Material.008
s off
f 53/91/37 51/92/37 49/93/37
f 51/92/38 56/94/38 52/95/38
f 55/96/39 54/97/39 56/98/39
f 50/99/40 56/100/40 54/101/40
f 49/102/41 52/95/41 50/99/41
f 53/103/42 50/99/42 54/97/42
f 53/91/37 55/104/37 51/92/37
f 51/92/38 55/105/38 56/94/38
f 55/96/39 53/103/39 54/97/39
f 50/99/40 52/95/40 56/100/40
f 49/102/41 51/92/41 52/95/41
f 53/103/42 49/102/42 50/99/42
o Cube.004
v -3.000000 1.000000 -7.000000
v -1.000000 1.000000 -7.000000
v -3.000000 1.000000 -5.000000
v -1.000000 1.000000 -5.000000
v -3.000000 -1.000000 -7.000000
v -1.000000 -1.000000 -7.000000
v -3.000000 -1.000000 -5.000000
v -1.000000 -1.000000 -5.000000
vt 0.497210 0.999288
vt 0.250539 0.664182
vt 0.497847 0.663946
vt 0.001633 0.334832
vt 0.251156 0.334264
vt 0.999391 0.664908
vt 0.748156 0.335967
vt 1.000028 0.336448
vt 0.497234 0.335485
vt 0.251792 0.000095
vt 0.497871 0.000231
vt 0.497865 0.663946
vt 0.748786 0.664427
vt 0.250145 0.998807
vt 0.000996 0.663718
vn -1.0000 0.0000 0.0000
vn 0.0000 0.0000 1.0000
vn 0.0000 -1.0000 0.0000
vn 1.0000 0.0000 0.0000
vn 0.0000 1.0000 0.0000
vn 0.0000 0.0000 -1.0000
usemtl Material.007
s off
f 61/106/43 59/107/43 57/108/43
f 59/107/44 64/109/44 60/110/44
f 63/111/45 62/112/45 64/113/45
f 58/114/46 64/115/46 62/116/46
f 57/117/47 60/110/47 58/114/47
f 61/118/48 58/114/48 62/112/48
f 61/106/43 63/119/43 59/107/43
f 59/107/44 63/120/44 64/109/44
f 63/111/45 61/118/45 62/112/45
f 58/114/46 60/110/46 64/115/46
f 57/117/47 59/107/47 60/110/47
f 61/118/48 57/117/48 58/114/48
o Cube.011
v -5.000000 1.000000 -1.000000
v -3.000000 1.000000 -1.000000
v -5.000000 1.000000 1.000000
v -3.000000 1.000000 1.000000
v -5.000000 -1.000000 -1.000000
v -3.000000 -1.000000 -1.000000
v -5.000000 -1.000000 1.000000
v -3.000000 -1.000000 1.000000
vt 0.497210 0.999288
vt 0.250539 0.664182
vt 0.497847 0.663946
vt 0.001633 0.334832
vt 0.251156 0.334264
vt 0.999391 0.664908
vt 0.748156 0.335967
vt 1.000028 0.336448
vt 0.497234 0.335485
vt 0.251792 0.000095
vt 0.497871 0.000231
vt 0.497865 0.663946
vt 0.748786 0.664427
vt 0.250145 0.998807
vt 0.000996 0.663718
vn -1.0000 0.0000 0.0000
vn 0.0000 0.0000 1.0000
vn 0.0000 -1.0000 0.0000
vn 1.0000 0.0000 0.0000
vn 0.0000 1.0000 0.0000
vn 0.0000 0.0000 -1.0000
usemtl Material.014
s off
f 69/121/49 67/122/49 65/123/49
f 67/122/50 72/124/50 68/125/50
f 71/126/51 70/127/51 72/128/51
f 66/129/52 72/130/52 70/131/52
f 65/132/53 68/125/53 66/129/53
f 69/133/54 66/129/54 70/127/54
f 69/121/49 71/134/49 67/122/49
f 67/122/50 71/135/50 72/124/50
f 71/126/51 69/133/51 70/127/51
f 66/129/52 68/125/52 72/130/52
f 65/132/53 67/122/53 68/125/53
f 69/133/54 65/132/54 66/129/54
o Cube.010
v -5.000000 1.000000 -3.000000
v -3.000000 1.000000 -3.000000
v -5.000000 1.000000 -1.000000
v -3.000000 1.000000 -1.000000
v -5.000000 -1.000000 -3.000000
v -3.000000 -1.000000 -3.000000
v -5.000000 -1.000000 -1.000000
v -3.000000 -1.000000 -1.000000
vt 0.497210 0.999288
vt 0.250539 0.664182
vt 0.497847 0.663946
vt 0.001633 0.334832
vt 0.251156 0.334264
vt 0.999391 0.664908
vt 0.748156 0.335967
vt 1.000028 0.336448
vt 0.497234 0.335485
vt 0.251792 0.000095
vt 0.497871 0.000231
vt 0.497865 0.663946
vt 0.748786 0.664427
vt 0.250145 0.998807
vt 0.000996 0.663718
vn -1.0000 0.0000 0.0000
vn 0.0000 0.0000 1.0000
vn 0.0000 -1.0000 0.0000
vn 1.0000 0.0000 0.0000
vn 0.0000 1.0000 0.0000
vn 0.0000 0.0000 -1.0000
usemtl Material.013
s off
f 77/136/55 75/137/55 73/138/55
f 75/137/56 80/139/56 76/140/56
f 79/141/57 78/142/57 80/143/57
f 74/144/58 80/145/58 78/146/58
f 73/147/59 76/140/59 74/144/59
f 77/148/60 74/144/60 78/142/60
f 77/136/55 79/149/55 75/137/55
f 75/137/56 79/150/56 80/139/56
f 79/141/57 77/148/57 78/142/57
f 74/144/58 76/140/58 80/145/58
f 73/147/59 75/137/59 76/140/59
f 77/148/60 73/147/60 74/144/60
o Cube.009
v -5.000000 1.000000 -5.000000
v -3.000000 1.000000 -5.000000
v -5.000000 1.000000 -3.000000
v -3.000000 1.000000 -3.000000
v -5.000000 -1.000000 -5.000000
v -3.000000 -1.000000 -5.000000
v -5.000000 -1.000000 -3.000000
v -3.000000 -1.000000 -3.000000
vt 0.497210 0.999288
vt 0.250539 0.664182
vt 0.497847 0.663946
vt 0.001633 0.334832
vt 0.251156 0.334264
vt 0.999391 0.664908
vt 0.748156 0.335967
vt 1.000028 0.336448
vt 0.497234 0.335485
vt 0.251792 0.000095
vt 0.497871 0.000231
vt 0.497865 0.663946
vt 0.748786 0.664427
vt 0.250145 0.998807
vt 0.000996 0.663718
vn -1.0000 0.0000 0.0000
vn 0.0000 0.0000 1.0000
vn 0.0000 -1.0000 0.0000
vn 1.0000 0.0000 0.0000
vn 0.0000 1.0000 0.0000
vn 0.0000 0.0000 -1.0000
usemtl Material.012
s off
f 85/151/61 83/152/61 81/153/61
f 83/152/62 88/154/62 84/155/62
f 87/156/63 86/157/63 88/158/63
f 82/159/64 88/160/64 86/161/64
f 81/162/65 84/155/65 82/159/65
f 85/163/66 82/159/66 86/157/66
f 85/151/61 87/164/61 83/152/61
f 83/152/62 87/165/62 88/154/62
f 87/156/63 85/163/63 86/157/63
f 82/159/64 84/155/64 88/160/64
f 81/162/65 83/152/65 84/155/65
f 85/163/66 81/162/66 82/159/66
o Cube.008
v -5.000000 1.000000 -7.000000
v -3.000000 1.000000 -7.000000
v -5.000000 1.000000 -5.000000
v -3.000000 1.000000 -5.000000
v -5.000000 -1.000000 -7.000000
v -3.000000 -1.000000 -7.000000
v -5.000000 -1.000000 -5.000000
v -3.000000 -1.000000 -5.000000
vt 0.497210 0.999288
vt 0.250539 0.664182
vt 0.497847 0.663946
vt 0.001633 0.334832
vt 0.251156 0.334264
vt 0.999391 0.664908
vt 0.748156 0.335967
vt 1.000028 0.336448
vt 0.497234 0.335485
vt 0.251792 0.000095
vt 0.497871 0.000231
vt 0.497865 0.663946
vt 0.748786 0.664427
vt 0.250145 0.998807
vt 0.000996 0.663718
vn -1.0000 0.0000 0.0000
vn 0.0000 0.0000 1.0000
vn 0.0000 -1.0000 0.0000
vn 1.0000 0.0000 0.0000
vn 0.0000 1.0000 0.0000
vn 0.0000 0.0000 -1.0000
usemtl Material.011
s off
f 93/166/67 91/167/67 89/168/67
f 91/167/68 96/169/68 92/170/68
f 95/171/69 94/172/69 96/173/69
f 90/174/70 96/175/70 94/176/70
f 89/177/71 92/170/71 90/174/71
f 93/178/72 90/174/72 94/172/72
f 93/166/67 95/179/67 91/167/67
f 91/167/68 95/180/68 96/169/68
f 95/171/69 93/178/69 94/172/69
f 90/174/70 92/170/70 96/175/70
f 89/177/71 91/167/71 92/170/71
f 93/178/72 89/177/72 90/174/72
